<?xml version="1.0" encoding="utf-8"?>
<!-- Generator: Adobe Illustrator 17.0.0, SVG Export Plug-In . SVG Version: 6.00 Build 0)  -->
<!DOCTYPE svg PUBLIC "-//W3C//DTD SVG 1.1//EN" "http://www.w3.org/Graphics/SVG/1.1/DTD/svg11.dtd">
<svg version="1.1" id="Capa_1" xmlns="http://www.w3.org/2000/svg" xmlns:xlink="http://www.w3.org/1999/xlink" x="0px" y="0px"
	 width="595.28px" height="841.89px" viewBox="0 0 595.28 841.89" enable-background="new 0 0 595.28 841.89" xml:space="preserve">
<g>
	<g>
		<g>
			<path fill="#1B1B47" d="M297.64,185.313c-75.21,0-136.418,61.196-136.418,136.418S222.431,458.15,297.64,458.15
				s136.418-61.196,136.418-136.418S372.85,185.313,297.64,185.313z M297.64,433.347c-23.5,0-45.259-7.381-63.264-19.83
				c16.784-8.765,39.061-17.375,63.264-17.375c24.194,0,46.461,8.604,63.259,17.379C342.894,425.968,321.137,433.347,297.64,433.347
				z M380.455,395.862c-19.855-11.442-49.637-24.523-82.815-24.523c-33.193,0-62.99,13.091-82.821,24.516
				c-17.7-19.761-28.794-45.568-28.794-74.123c0-61.549,50.067-111.615,111.615-111.615s111.615,50.067,111.615,111.615
				C409.255,350.29,398.159,376.101,380.455,395.862z"/>
			<path fill="#1B1B47" d="M297.64,234.92c-34.202,0-62.008,27.819-62.008,62.008s27.807,62.008,62.008,62.008
				s62.008-27.819,62.008-62.008S331.842,234.92,297.64,234.92z M297.64,334.133c-20.516,0-37.205-16.689-37.205-37.205
				c0-20.516,16.689-37.205,37.205-37.205s37.205,16.689,37.205,37.205S318.156,334.133,297.64,334.133z"/>
			<path fill="#1B1B47" d="M297.64,123.305c-109.411,0-198.427,89.016-198.427,198.427c0,32.857,8.212,65.424,23.81,94.309
				l163.766,296.15c2.18,3.948,6.346,6.395,10.851,6.395s8.671-2.446,10.851-6.395l163.814-296.26
				c15.551-28.776,23.762-61.342,23.762-94.2C496.067,212.321,407.051,123.305,297.64,123.305z M450.554,404.026L297.64,680.557
				L144.775,404.135c-13.565-25.154-20.758-53.652-20.758-82.403c0-95.738,77.898-173.623,173.623-173.623
				s173.623,77.886,173.623,173.623C471.263,350.483,464.07,378.98,450.554,404.026z"/>
		</g>
	</g>
</g>
</svg>
